<svg xmlns="http://www.w3.org/2000/svg" xmlns:xlink="http://www.w3.org/1999/xlink" width="500" zoomAndPan="magnify" viewBox="0 0 375 374.999991" height="500" preserveAspectRatio="xMidYMid meet" version="1.0"><defs><clipPath id="cb9583d187"><path d="M 187.5 0 C 83.945312 0 0 83.945312 0 187.5 C 0 291.054688 83.945312 375 187.5 375 C 291.054688 375 375 291.054688 375 187.5 C 375 83.945312 291.054688 0 187.5 0 Z M 187.5 0 " clip-rule="nonzero"/></clipPath><clipPath id="5f8e5efbae"><path d="M 178.917969 137.640625 L 278.636719 137.640625 L 278.636719 187.5 L 178.917969 187.5 Z M 178.917969 137.640625 " clip-rule="nonzero"/></clipPath><clipPath id="85f105cac7"><path d="M 253.707031 137.640625 C 267.472656 137.640625 278.636719 148.800781 278.636719 162.570312 C 278.636719 176.339844 267.472656 187.5 253.707031 187.5 L 203.847656 187.5 C 190.078125 187.5 178.917969 176.339844 178.917969 162.570312 C 178.917969 148.800781 190.078125 137.640625 203.847656 137.640625 Z M 253.707031 137.640625 " clip-rule="nonzero"/></clipPath><clipPath id="20b7332176"><path d="M 193.171875 184.140625 L 312.089844 184.140625 L 312.089844 243.597656 L 193.171875 243.597656 Z M 193.171875 184.140625 " clip-rule="nonzero"/></clipPath><clipPath id="72bc601ff9"><path d="M 282.359375 184.140625 C 298.78125 184.140625 312.089844 197.449219 312.089844 213.871094 C 312.089844 230.289062 298.78125 243.597656 282.359375 243.597656 L 222.902344 243.597656 C 206.484375 243.597656 193.171875 230.289062 193.171875 213.871094 C 193.171875 197.449219 206.484375 184.140625 222.902344 184.140625 Z M 282.359375 184.140625 " clip-rule="nonzero"/></clipPath><clipPath id="f871592295"><path d="M 62.910156 93.121094 L 278.953125 93.121094 L 278.953125 281.878906 L 62.910156 281.878906 Z M 62.910156 93.121094 " clip-rule="nonzero"/></clipPath><clipPath id="e9196febd5"><path d="M 170.773438 93.121094 L 278.636719 281.878906 L 62.910156 281.878906 Z M 170.773438 93.121094 " clip-rule="nonzero"/></clipPath><clipPath id="c4d378f22c"><path d="M 201.800781 148.8125 L 245.398438 148.8125 L 245.398438 184.132812 L 201.800781 184.132812 Z M 201.800781 148.8125 " clip-rule="nonzero"/></clipPath><clipPath id="89833ad9d4"><path d="M 244.25 172.351562 C 244.867188 170.542969 245.269531 168.484375 245.269531 166.464844 C 245.269531 164.441406 244.921875 162.5 244.308594 160.707031 C 244.289062 160.667969 244.289062 160.632812 244.269531 160.59375 C 241.804688 153.863281 235.300781 148.910156 227.699219 148.8125 L 201.800781 148.8125 L 201.800781 184.132812 L 227.679688 184.132812 C 235.339844 184.039062 241.84375 179.15625 244.25 172.351562 Z M 244.25 172.351562 " clip-rule="nonzero"/></clipPath><clipPath id="ba86667a9b"><path d="M 227.710938 193.667969 L 274.042969 193.667969 L 274.042969 231.203125 L 227.710938 231.203125 Z M 227.710938 193.667969 " clip-rule="nonzero"/></clipPath><clipPath id="67c7d1d45c"><path d="M 272.957031 206.1875 C 273.613281 208.105469 274.042969 210.300781 274.042969 212.445312 C 274.042969 214.59375 273.675781 216.660156 273.019531 218.5625 C 273 218.605469 273 218.644531 272.980469 218.683594 C 270.359375 225.835938 263.449219 231.101562 255.371094 231.203125 L 227.847656 231.203125 L 227.847656 193.667969 L 255.351562 193.667969 C 263.488281 193.769531 270.402344 198.957031 272.957031 206.1875 Z M 272.957031 206.1875 " clip-rule="nonzero"/></clipPath></defs><g clip-path="url(#cb9583d187)"><rect x="-37.5" width="450" fill="#000000" y="-37.499999" height="449.999989" fill-opacity="1"/></g><g clip-path="url(#5f8e5efbae)"><g clip-path="url(#85f105cac7)"><path fill="#ffffff" d="M 178.917969 137.640625 L 278.636719 137.640625 L 278.636719 187.5 L 178.917969 187.5 Z M 178.917969 137.640625 " fill-opacity="1" fill-rule="nonzero"/></g></g><g clip-path="url(#20b7332176)"><g clip-path="url(#72bc601ff9)"><path fill="#ffffff" d="M 193.171875 184.140625 L 312.089844 184.140625 L 312.089844 243.597656 L 193.171875 243.597656 Z M 193.171875 184.140625 " fill-opacity="1" fill-rule="nonzero"/></g></g><g clip-path="url(#f871592295)"><g clip-path="url(#e9196febd5)"><path fill="#726e6e" d="M 62.910156 93.121094 L 278.953125 93.121094 L 278.953125 281.878906 L 62.910156 281.878906 Z M 62.910156 93.121094 " fill-opacity="1" fill-rule="nonzero"/></g></g><g clip-path="url(#c4d378f22c)"><g clip-path="url(#89833ad9d4)"><path fill="#726e6e" d="M 201.800781 184.132812 L 201.800781 148.8125 L 245.257812 148.8125 L 245.257812 184.132812 Z M 201.800781 184.132812 " fill-opacity="1" fill-rule="nonzero"/></g></g><g clip-path="url(#ba86667a9b)"><g clip-path="url(#67c7d1d45c)"><path fill="#726e6e" d="M 274.042969 193.667969 L 274.042969 231.203125 L 227.855469 231.203125 L 227.855469 193.667969 Z M 274.042969 193.667969 " fill-opacity="1" fill-rule="nonzero"/></g></g></svg>