<svg xmlns="http://www.w3.org/2000/svg" xmlns:xlink="http://www.w3.org/1999/xlink" width="500" zoomAndPan="magnify" viewBox="0 0 375 374.999991" height="500" preserveAspectRatio="xMidYMid meet" version="1.0"><defs><clipPath id="e9643dc967"><path d="M 178.917969 137.640625 L 278.636719 137.640625 L 278.636719 187.5 L 178.917969 187.5 Z M 178.917969 137.640625 " clip-rule="nonzero"/></clipPath><clipPath id="2a535971d5"><path d="M 253.707031 137.640625 C 267.472656 137.640625 278.636719 148.800781 278.636719 162.570312 C 278.636719 176.339844 267.472656 187.5 253.707031 187.5 L 203.847656 187.5 C 190.078125 187.5 178.917969 176.339844 178.917969 162.570312 C 178.917969 148.800781 190.078125 137.640625 203.847656 137.640625 Z M 253.707031 137.640625 " clip-rule="nonzero"/></clipPath><clipPath id="7a9ee6793e"><path d="M 193.171875 184.140625 L 312.089844 184.140625 L 312.089844 243.597656 L 193.171875 243.597656 Z M 193.171875 184.140625 " clip-rule="nonzero"/></clipPath><clipPath id="e63419387c"><path d="M 282.359375 184.140625 C 298.78125 184.140625 312.089844 197.449219 312.089844 213.871094 C 312.089844 230.289062 298.78125 243.597656 282.359375 243.597656 L 222.902344 243.597656 C 206.484375 243.597656 193.171875 230.289062 193.171875 213.871094 C 193.171875 197.449219 206.484375 184.140625 222.902344 184.140625 Z M 282.359375 184.140625 " clip-rule="nonzero"/></clipPath><clipPath id="eb2d94bddc"><path d="M 62.910156 93.121094 L 278.953125 93.121094 L 278.953125 281.878906 L 62.910156 281.878906 Z M 62.910156 93.121094 " clip-rule="nonzero"/></clipPath><clipPath id="d08ef0a643"><path d="M 170.773438 93.121094 L 278.636719 281.878906 L 62.910156 281.878906 Z M 170.773438 93.121094 " clip-rule="nonzero"/></clipPath><clipPath id="8f2440efe7"><path d="M 201.800781 148.808594 L 245.394531 148.808594 L 245.394531 184.128906 L 201.800781 184.128906 Z M 201.800781 148.808594 " clip-rule="nonzero"/></clipPath><clipPath id="4bc5c069b4"><path d="M 244.25 172.347656 C 244.863281 170.535156 245.269531 168.476562 245.269531 166.457031 C 245.269531 164.4375 244.921875 162.492188 244.308594 160.703125 C 244.289062 160.664062 244.289062 160.625 244.269531 160.585938 C 241.804688 153.859375 235.300781 148.902344 227.699219 148.808594 L 201.800781 148.808594 L 201.800781 184.128906 L 227.679688 184.128906 C 235.339844 184.03125 241.84375 179.152344 244.25 172.347656 Z M 244.25 172.347656 " clip-rule="nonzero"/></clipPath><clipPath id="84ca987254"><path d="M 227.703125 193.660156 L 274.035156 193.660156 L 274.035156 231.191406 L 227.703125 231.191406 Z M 227.703125 193.660156 " clip-rule="nonzero"/></clipPath><clipPath id="3746703522"><path d="M 272.953125 206.175781 C 273.605469 208.09375 274.035156 210.289062 274.035156 212.4375 C 274.035156 214.582031 273.667969 216.648438 273.011719 218.554688 C 272.992188 218.59375 272.992188 218.632812 272.972656 218.675781 C 270.355469 225.824219 263.441406 231.09375 255.363281 231.191406 L 227.839844 231.191406 L 227.839844 193.660156 L 255.34375 193.660156 C 263.484375 193.761719 270.394531 198.945312 272.953125 206.175781 Z M 272.953125 206.175781 " clip-rule="nonzero"/></clipPath></defs><g clip-path="url(#e9643dc967)"><g clip-path="url(#2a535971d5)"><path fill="#000000" d="M 178.917969 137.640625 L 278.636719 137.640625 L 278.636719 187.5 L 178.917969 187.5 Z M 178.917969 137.640625 " fill-opacity="1" fill-rule="nonzero"/></g></g><g clip-path="url(#7a9ee6793e)"><g clip-path="url(#e63419387c)"><path fill="#000000" d="M 193.171875 184.140625 L 312.089844 184.140625 L 312.089844 243.597656 L 193.171875 243.597656 Z M 193.171875 184.140625 " fill-opacity="1" fill-rule="nonzero"/></g></g><g clip-path="url(#eb2d94bddc)"><g clip-path="url(#d08ef0a643)"><path fill="#726e6e" d="M 62.910156 93.121094 L 278.953125 93.121094 L 278.953125 281.878906 L 62.910156 281.878906 Z M 62.910156 93.121094 " fill-opacity="1" fill-rule="nonzero"/></g></g><g clip-path="url(#8f2440efe7)"><g clip-path="url(#4bc5c069b4)"><path fill="#726e6e" d="M 201.800781 184.128906 L 201.800781 148.808594 L 245.257812 148.808594 L 245.257812 184.128906 Z M 201.800781 184.128906 " fill-opacity="1" fill-rule="nonzero"/></g></g><g clip-path="url(#84ca987254)"><g clip-path="url(#3746703522)"><path fill="#726e6e" d="M 274.035156 193.660156 L 274.035156 231.191406 L 227.851562 231.191406 L 227.851562 193.660156 Z M 274.035156 193.660156 " fill-opacity="1" fill-rule="nonzero"/></g></g></svg>